# xmcd
#
# Track frame offsets: 
#        150
#        36587
#        48640
#        119440
#        139595
#        155662
#        181917
#        214342
#        276237
#
# Disc length: 4248 seconds
#
# Revision: 1
# Processed by: cddbd v1.5.2PL0 Copyright (c) Steve Scherf et al.
# Submitted via: ExactAudioCopy v0.95b4
#
DISCID=8d109609
DTITLE=Eric Clapton - 1975-04-14 - Milk Cow Blues - CD2
DYEAR=1975
DGENRE=Blues
TTITLE0=Layla
TTITLE1=All I Have To Do Is Dream
TTITLE2=Little Wing
TTITLE3=Smile
TTITLE4=Easy Now
TTITLE5=Let It Grow
TTITLE6=Badge
TTITLE7=Willie And The Hand Jive and Get Ready
TTITLE8=Blues Power
EXTD=CD 2
EXTT0=
EXTT1=
EXTT2=
EXTT3=
EXTT4=
EXTT5=
EXTT6=
EXTT7=
EXTT8=
PLAYORDER=
